<svg style="color:blue" viewBox="0 0 1434.98 184.96" height="2rem" aria-hidden="true" focusable="false" xmlns="http://www.w3.org/2000/svg">
  <g fill="#fff">
    <polygon points="154.9 31.23 37.68 50.29 20.47 78.55 159.44 55.95 154.9 31.23" />
    <polygon points="197.56 65.6 10.97 95.95 10.18 97.25 23.75 119.33 202.09 90.32 197.56 65.6" />
    <polygon points="193.97 103.08 28.27 130.03 42.49 153.18 198.5 127.8 193.97 103.08" />
    <polygon points="151.88 142.26 47.81 159.19 58.17 176.07 100.28 176.12 156.42 166.99 151.88 142.26" />
  </g>
  <g fill="#be1731">
    <polygon points="174.34 50.2 21.41 75.08 10.21 93.47 15.17 101.55 178.88 74.93 174.34 50.2" />
    <polygon points="176.79 87.94 18.04 113.76 32.26 136.91 181.32 112.67 176.79 87.94" />
    <polygon points="165.45 126.17 42.29 146.19 56.29 169.38 169.98 150.89 165.45 126.17" />
  </g>
  <g fill="#1c3661">
    <polygon points="140.07 9.73 61.8 9.75 18.24 81.28 149.29 59.97 140.07 9.73" />
  </g>
  <g fill="#fff">
    <path d="M114.43,64.67l12.24-1.93,1.83-11.56,5.74,10.37,12.23-1.93L137.79,68l5.73,10.37L132.4,73.11l-8.71,8.35,1.84-11.57Z" />
    <path d="M78.38,61.25l12.24-1.93,1.83-11.56,5.73,10.37,12.24-1.93-8.69,8.34,5.73,10.37L96.35,69.69,87.64,78l1.83-11.56Z" />
    <path d="M42.42,57.79l12.23-1.92L56.49,44.3l5.73,10.37,12.24-1.92-8.69,8.34L71.5,71.46,60.39,66.24l-8.71,8.34L53.51,63Z" />
    <path d="M95.6,33.72l12.24-1.93,1.83-11.57,5.74,10.38,12.23-1.93L119,37l5.73,10.37-11.12-5.22-8.71,8.34,1.84-11.56Z" />
    <path d="M59.78,31.32,72,29.39l1.83-11.56L79.58,28.2l12.24-1.93-8.68,8.34L88.87,45,77.75,39.76,69,48.1l1.84-11.56Z" />
  </g>
  <g fill="#d5d8e2">
    <path d="M170.08,185H56.69L0,92.48,56.69,0H170.08l56.69,92.48ZM65.14,171.18h96.5l48.24-78.7-48.24-78.7H65.14L16.89,92.48Z" />
  </g>
  <g fill="red">
  <g fill="currentcolor">
    <path d="M321.21,145.15q-13.29,0-22.86-5.14a34.82,34.82,0,0,1-14.64-14.79q-5.08-9.64-5.08-23.08V40.84h18.15v63.3q0,12.15,6.36,18.72t18.07,6.57q11.87,0,18.22-6.57t6.36-18.72V40.84h18.15v61.3q0,13.42-5.15,23.08A35.33,35.33,0,0,1,344.15,140Q334.64,145.14,321.21,145.15Z" />
    <path d="M414.66,145.15a73.6,73.6,0,0,1-16.43-1.86,60.26,60.26,0,0,1-15.29-5.71V121a59.48,59.48,0,0,0,32,9.15q10.71,0,16.5-4a12.65,12.65,0,0,0,5.79-11,12,12,0,0,0-1.71-6.64,14.43,14.43,0,0,0-4.65-4.43,28.8,28.8,0,0,0-6.71-2.93c-2.53-.76-5.17-1.48-7.94-2.14a118.87,118.87,0,0,1-13.78-4.22,45.23,45.23,0,0,1-10.72-5.64A22.36,22.36,0,0,1,384.8,81a26.31,26.31,0,0,1-2.43-11.86,28,28,0,0,1,4.72-16.29,29.62,29.62,0,0,1,13.43-10.5q8.72-3.65,20.72-3.64a68.51,68.51,0,0,1,15.64,1.78,53.71,53.71,0,0,1,13.65,5.07V61.7a48.28,48.28,0,0,0-13.36-5.86A59.79,59.79,0,0,0,421,53.7q-9.72,0-15.15,3.64a11.76,11.76,0,0,0-5.43,10.36A10.83,10.83,0,0,0,403,75.35a17.66,17.66,0,0,0,7.28,4.43c3.15,1.09,6.81,2.16,11,3.21q6.86,1.71,13.07,3.86a44,44,0,0,1,11,5.5,23.85,23.85,0,0,1,7.5,8.5,27.36,27.36,0,0,1,2.72,12.86,28.79,28.79,0,0,1-4.86,16.86,30.85,30.85,0,0,1-14,10.79Q427.52,145.15,414.66,145.15Z" />
    <path d="M508,40.84h68.3V56.13H526.12V82.56h44.72V97.85H526.12v29.87H579V143H508Z" />
    <path d="M610.14,144.29q-9,0-13.44-4.78t-4.43-14.65V36.55h17.29v87q0,3.72,1.43,5.43c1,1.15,2.58,1.72,4.86,1.72a14.9,14.9,0,0,0,6.72-1.72v13a22.58,22.58,0,0,1-5.58,1.71A38.42,38.42,0,0,1,610.14,144.29Z" />
    <path d="M670.86,144.86q-11.72,0-20.14-4.57a30.87,30.87,0,0,1-12.94-13.22q-4.5-8.64-4.5-20.5t4.29-20.72a31.85,31.85,0,0,1,12.14-13.5,34.77,34.77,0,0,1,18.44-4.79q15.29,0,23.29,9.43t8,26.86v6h-49.3q2,21.15,23.29,21.15a45.83,45.83,0,0,0,12.08-1.5,40.09,40.09,0,0,0,11.07-5.07v14.43Q685.87,144.86,670.86,144.86Zm-3-64.44a15.09,15.09,0,0,0-11.5,4.79q-4.5,4.79-5.79,13.36h32.58q-.72-9.28-4.43-13.72T667.86,80.42Z" />
    <path d="M749.74,144.86q-11.87,0-20.37-4.57a30.84,30.84,0,0,1-13-13.22q-4.5-8.64-4.5-20.93,0-11.86,4.72-20.51A32.81,32.81,0,0,1,730,72.27q8.64-4.71,20.36-4.71A46.92,46.92,0,0,1,761,68.7a37.34,37.34,0,0,1,9.29,3.57V87.42a31.34,31.34,0,0,0-8.71-4.36,31.93,31.93,0,0,0-9.72-1.5q-10.57,0-16.43,6.5t-5.86,18.08q0,11.72,5.79,18.22t16.07,6.5a35.41,35.41,0,0,0,10.36-1.5,34.54,34.54,0,0,0,9.5-4.64v14.86A42.88,42.88,0,0,1,749.74,144.86Z" />
    <path d="M819.89,144.86q-11.57,0-17.57-6.07t-6-17.65V82.85H782.88V69.42h13.44v-19l17.29-4v23h20.72V82.85H813.61v37q0,11,10.86,11a26.51,26.51,0,0,0,11.57-3v13.57A37.4,37.4,0,0,1,819.89,144.86Z" />
    <path d="M858.33,37.12A10.64,10.64,0,0,1,866,39.77a9.1,9.1,0,0,1,2.79,6.93,9.06,9.06,0,0,1-2.79,7,10.83,10.83,0,0,1-7.64,2.57,11.14,11.14,0,0,1-7.72-2.57,8.79,8.79,0,0,1-2.85-6.86,9.18,9.18,0,0,1,2.85-7.07A11,11,0,0,1,858.33,37.12Zm-8.72,32.3H866.9V143H849.61Z" />
    <path d="M917.92,67.56a39.36,39.36,0,0,1,14.93,2.71,31.83,31.83,0,0,1,11.36,7.79,35.37,35.37,0,0,1,7.29,12.22,47.11,47.11,0,0,1,2.57,16,44.62,44.62,0,0,1-4.43,20.44,32,32,0,0,1-12.51,13.43q-8.07,4.71-19.21,4.71A39.18,39.18,0,0,1,903,142.15a31.71,31.71,0,0,1-11.36-7.79,35.11,35.11,0,0,1-7.28-12.22,46.82,46.82,0,0,1-2.58-16q0-11.86,4.43-20.51a32,32,0,0,1,12.58-13.36A37.58,37.58,0,0,1,917.92,67.56Zm0,63.3q8.7,0,13.57-6.5t4.86-18.08a36.57,36.57,0,0,0-2.14-13.21,18.46,18.46,0,0,0-6.29-8.51,16.62,16.62,0,0,0-10-3q-8.73,0-13.58,6.5t-4.86,18.08a36.57,36.57,0,0,0,2.15,13.15,18.42,18.42,0,0,0,6.28,8.57A16.63,16.63,0,0,0,917.92,130.86Z" />
    <path d="M968.93,143V69.42h14.71l1.15,9.28q9.44-11.15,23.15-11.14a26.9,26.9,0,0,1,13.86,3.36,22.19,22.19,0,0,1,8.79,9.64A35.1,35.1,0,0,1,1033.66,96v47h-17.29V96.85q0-7.42-3.43-11.29t-9.72-3.85q-10.14,0-17,8.43V143Z" />
  </g>
  <g fill="currentcolor" opacity="0.8">
    <path d="M1093.51,143v-4.26a52.27,52.27,0,0,1,1.52-13.07,37.19,37.19,0,0,1,5-11.25,55.49,55.49,0,0,1,9.28-10.56,137.82,137.82,0,0,1,14.13-11q6.39-4.4,10.79-8a47.6,47.6,0,0,0,7-6.77,21.44,21.44,0,0,0,3.72-6.53,23,23,0,0,0,1.14-7.45q0-8.36-5.62-12.7T1125,47.09q-15,0-29,10.34V43.9A61.87,61.87,0,0,1,1111.06,37a56.78,56.78,0,0,1,16-2.21,42.73,42.73,0,0,1,17.86,3.5,27.67,27.67,0,0,1,11.93,9.88,26.46,26.46,0,0,1,4.26,15.05,34.9,34.9,0,0,1-1.37,10,28.91,28.91,0,0,1-4.41,8.74,53.06,53.06,0,0,1-8.21,8.66,137.37,137.37,0,0,1-12.76,9.65q-6.54,4.41-11.18,8.21a74.84,74.84,0,0,0-7.75,7.22,28.32,28.32,0,0,0-4.79,7,27.9,27.9,0,0,0-2.28,7.68h55V143Z" />
    <path d="M1218.43,34.78q12.45,0,21,6.46T1252.63,60q4.56,12.32,4.56,30.1,0,17.48-4.56,29.72t-13.23,18.69q-8.65,6.47-21,6.46t-21-6.46q-8.65-6.45-13.22-18.69t-4.56-29.72q0-17.79,4.56-30.1t13.22-18.77Q1206.12,34.79,1218.43,34.78Zm0,97.89q11.7,0,17.71-10.87t6-31.69q0-21.12-6-32.07t-17.71-10.95q-11.72,0-17.71,10.95t-6,32.07q0,20.82,6,31.69T1218.43,132.67Z" />
    <path d="M1271.3,143v-4.26a52.27,52.27,0,0,1,1.52-13.07,37.19,37.19,0,0,1,5-11.25,55.49,55.49,0,0,1,9.28-10.56,137.82,137.82,0,0,1,14.13-11q6.39-4.4,10.79-8a47.6,47.6,0,0,0,7-6.77,21.44,21.44,0,0,0,3.72-6.53,23,23,0,0,0,1.14-7.45q0-8.36-5.62-12.7t-15.51-4.33q-15,0-29,10.34V43.9A61.87,61.87,0,0,1,1288.85,37a56.78,56.78,0,0,1,16-2.21,42.73,42.73,0,0,1,17.86,3.5,27.73,27.73,0,0,1,11.93,9.88,26.46,26.46,0,0,1,4.26,15.05,34.9,34.9,0,0,1-1.37,10,28.91,28.91,0,0,1-4.41,8.74,53.06,53.06,0,0,1-8.21,8.66,137.37,137.37,0,0,1-12.76,9.65q-6.54,4.41-11.18,8.21a74.84,74.84,0,0,0-7.75,7.22,28.32,28.32,0,0,0-4.79,7,27.9,27.9,0,0,0-2.28,7.68h55V143Z" />
    <path d="M1396.22,34.78q12.45,0,21,6.46T1430.42,60q4.56,12.32,4.56,30.1,0,17.48-4.56,29.72t-13.23,18.69q-8.65,6.47-21,6.46t-21-6.46q-8.65-6.45-13.22-18.69t-4.56-29.72q0-17.79,4.56-30.1t13.22-18.77Q1383.91,34.79,1396.22,34.78Zm0,97.89q11.7,0,17.71-10.87t6-31.69q0-21.12-6-32.07t-17.71-10.95q-11.71,0-17.71,10.95t-6,32.07q0,20.82,6,31.69T1396.22,132.67Z" />
  </g>
  </g>
</svg>
